<svg width="221" height="104" viewBox="0 0 221 104" fill="none" xmlns="http://www.w3.org/2000/svg">
<path d="M38.5565 78.1644H35.9276C35.0074 78.1644 34.2188 78.9101 34.2188 79.8751V82.8578C34.2188 83.7789 34.9636 84.5685 35.9276 84.5685H38.5565C39.4767 84.5685 40.2654 83.8228 40.2654 82.8578V79.8751C40.2215 78.9101 39.4767 78.1644 38.5565 78.1644Z" fill="white"/>
<path d="M61.4745 47.0215H64.1034C65.0235 47.0215 65.8122 46.2758 65.8122 45.3108V42.3281C65.8122 41.407 65.0674 40.6174 64.1034 40.6174H61.4745C60.5543 40.6174 59.7656 41.3631 59.7656 42.3281V45.3108C59.7656 46.2758 60.5543 47.0215 61.4745 47.0215Z" fill="white"/>
<path d="M53.7635 47.0215H56.3925C57.3126 47.0215 58.1013 46.2758 58.1013 45.3108V42.3281C58.1013 41.407 57.3564 40.6174 56.3925 40.6174H53.7635C52.8434 40.6174 52.0547 41.3631 52.0547 42.3281V45.3108C52.0547 46.2758 52.7996 47.0215 53.7635 47.0215Z" fill="white"/>
<path d="M76.1971 47.0215H78.8261C79.7462 47.0215 80.5349 46.2758 80.5349 45.3108V42.3281C80.5349 41.407 79.79 40.6174 78.8261 40.6174H76.1971C75.277 40.6174 74.4883 41.3631 74.4883 42.3281V45.3108C74.5321 46.2758 75.277 47.0215 76.1971 47.0215Z" fill="white"/>
<path d="M83.908 47.0215H86.537C87.4571 47.0215 88.2458 46.2758 88.2458 45.3108V42.3281C88.2458 41.407 87.5009 40.6174 86.537 40.6174H83.908C82.9879 40.6174 82.1992 41.3631 82.1992 42.3281V45.3108C82.243 46.2758 82.9879 47.0215 83.908 47.0215Z" fill="white"/>
<path d="M133.726 67.067C133.902 65.9266 134.033 64.6545 134.033 63.2509V54.4344H127.943V64.0404C127.943 67.4179 126.146 69.5672 122.685 69.5672C119.355 69.5672 118.435 67.5495 118.435 63.3825V54.6537H112.3V63.6457C112.3 67.9443 109.146 69.1286 106.517 69.1286H103.318V54.6537H97.1838V69.1286H91.1372H90.2609H88.4206V54.4344H82.2864V69.1286H71.5515V59.5225C71.5515 54.6975 67.6519 50.7498 62.8759 50.7498H56.2597C51.4838 50.7498 47.5841 54.6975 47.5841 59.5225V69.1286H46.3135H42.9835H40.2669V54.4344H34.1326V69.1286H30.8464H29.9701H25.2818V45.8372V40.9683H19.1476V74.6554H15.6423C13.0572 74.6554 9.81478 74.2606 8.32504 72.9886C6.96674 71.8481 6.48476 69.962 6.48476 67.3741V61.2771H0V68.1197C0 71.6727 0.744871 75.0063 2.89185 77.024C5.56463 79.5681 9.99004 80.7962 15.2041 80.7962H25.2818V75.3133H30.0139H30.8903H42.9835H46.3135H90.2609H91.1372H106.56C109.89 75.3133 113.045 73.8658 115.28 71.5411C117.295 74.787 119.399 75.752 122.729 75.752C127.11 75.752 130.221 74.3922 132.061 71.6727C133.025 73.3395 133.683 75.0501 137.889 75.2695V75.3133H142.358V69.1725H138.765C135.873 69.1286 135.041 68.4706 133.726 67.067ZM52.9735 59.5225C52.9735 57.6364 54.4633 56.1012 56.3035 56.1012H62.9197C64.76 56.1012 66.2497 57.6364 66.2497 59.5225V69.1286H53.0173V59.5225H52.9735Z" fill="white"/>
<path d="M204.841 40.9683H198.707V69.1286H195.289H194.413H186.789V75.2695H194.413H195.289H204.841V47.1092V40.9683Z" fill="white"/>
<path d="M219.912 40.9683H213.777V75.3133H219.912V40.9683Z" fill="white"/>
<path d="M186.699 34.345H220.043V33.9502V28.555V28.1603H207.073C205.584 27.5023 204.532 25.9671 204.532 24.2564V18.0278C204.532 15.6592 206.46 13.7292 208.826 13.7292H219.079V8.33404H208.826C203.48 8.33404 199.143 12.6765 199.143 18.0278V24.2564C199.143 25.6601 199.449 26.976 199.975 28.1603H199.493H186.699V34.345ZM142.401 28.2041H138.282H134.295V4.86883V0H128.161V33.687H124.655C122.07 33.687 119.617 33.2923 118.127 32.0202C116.769 30.8798 116.287 28.9937 116.287 26.4057V20.3087H110.152V27.1514C110.152 30.7043 110.941 34.2134 113.088 36.2311C115.761 38.7752 119.003 39.8279 124.217 39.8279H134.295V34.345H138.282H142.401V28.2041Z" fill="white"/>
<path d="M150.596 33.9941H145.25C145.25 28.0287 150.07 23.2037 156.029 23.2037V28.5551C153.005 28.5989 150.596 31.0114 150.596 33.9941Z" fill="#74B744"/>
<path d="M184.029 33.9941H178.683C178.683 31.0114 176.273 28.5551 173.25 28.5551V23.2037C179.209 23.2037 184.029 28.0726 184.029 33.9941Z" fill="#74B744"/>
<path d="M173.555 80.2261V74.8748C176.534 74.8748 178.988 72.4623 178.988 69.4357H184.333C184.333 75.4011 179.514 80.2261 173.555 80.2261Z" fill="#74B744"/>
<path d="M156.337 80.2261C150.378 80.2261 145.559 75.4011 145.559 69.4357H150.904C150.904 72.4184 153.314 74.8748 156.337 74.8748V80.2261Z" fill="#74B744"/>
<path d="M0.21875 103.781V87.1126H10.8222V89.876H3.19824V93.8237H10.1212V96.631H3.19824V103.781H0.21875Z" fill="white"/>
<path d="M19.4531 92.2007H22.345V103.167C20.68 103.737 19.4093 104 17.3938 104C14.4581 104 12.1797 102.86 12.1797 99.2627V92.2007H15.0715V98.4293C15.0715 100.535 15.7288 101.193 17.35 101.193C18.0072 101.193 18.6645 101.149 19.497 100.886V92.2007H19.4531Z" fill="white"/>
<path d="M24.4023 92.2007H26.5931V87.9899H29.485V92.2007H33.8666V94.8764H29.485V99.0434C29.485 100.623 30.0108 101.061 31.5443 101.061H33.9542V103.737H31.2376C28.0391 103.737 26.637 102.816 26.637 100.052V94.8325H24.4462V92.2007H24.4023Z" fill="white"/>
<path d="M43.4649 92.2007H46.3567V103.167C44.6917 103.737 43.421 104 41.4055 104C38.4698 104 36.1914 102.86 36.1914 99.2627V92.2007H39.0833V98.4293C39.0833 100.535 39.7405 101.193 41.3617 101.193C42.0189 101.193 42.6762 101.149 43.5087 100.886V92.2007H43.4649Z" fill="white"/>
<path d="M56.3913 94.7887H54.7702C54.332 94.7887 52.9299 94.8764 52.5794 95.008V103.781H49.6875V92.5517C51.1334 92.2446 53.0175 92.0692 54.2005 92.0692H56.3913V94.7887Z" fill="white"/>
<path d="M64.4078 101.193C65.6347 101.193 67.1682 100.754 67.7816 100.184L69.0523 102.728C67.8255 103.386 66.2919 104 64.0135 104C60.3767 104 57.6602 101.368 57.6602 97.903C57.6602 94.35 60.3767 91.806 63.7944 91.806C67.3435 91.806 69.8848 94.3939 69.7534 98.868H60.5958C60.9464 100.447 62.2608 101.193 64.0573 101.193H64.4078ZM60.7273 96.4993H66.7739C66.4672 95.0957 65.3279 94.35 63.7944 94.35C62.217 94.35 61.0778 95.2273 60.7273 96.4993Z" fill="white"/>
<path d="M91.8793 100.315L94.5959 89.3496H97.882L94.0262 103.781H89.9075L87.4977 91.8498L85.0878 103.781H80.9691L77.1133 89.3496H80.3557L83.0723 100.315L85.3945 89.3496H89.5132L91.8793 100.315Z" fill="white"/>
<path d="M119.048 94.7887H117.426C116.988 94.7887 115.586 94.8764 115.236 95.008V103.781H112.344V92.5517C113.79 92.2446 115.674 92.0692 116.857 92.0692H119.048V94.7887Z" fill="white"/>
<path d="M121.324 103.781V87.1126H124.216V97.903L128.51 92.2008H131.928L127.59 97.9469L132.191 103.781H128.729L124.216 98.0784V103.781H121.324Z" fill="white"/>
<path d="M105.681 92.2007H102.965C100.73 92.2007 98.9336 93.9991 98.9336 96.2362V99.7014C98.9336 101.938 100.73 103.737 102.965 103.737H105.681C107.916 103.737 109.712 101.938 109.712 99.7014V96.2362C109.712 93.9991 107.872 92.2007 105.681 92.2007ZM107.127 98.6048C107.127 99.9207 106.076 101.017 104.717 101.017H103.885C102.57 101.017 101.475 99.9646 101.475 98.6048V97.3766C101.475 96.0607 102.527 94.9641 103.885 94.9641H104.717C106.032 94.9641 107.127 96.0169 107.127 97.3766V98.6048Z" fill="white"/>
</svg>
