<svg version="1.2" xmlns="http://www.w3.org/2000/svg" viewBox="0 0 504 504" width="504" height="504">
	<title>clock-hour</title>
	<style>
		.s0 { fill: #ffffff } 
	</style>
	<g>
		<g>
			<path class="s0" d="m252 0c-139 0-252 113-252 252 0 139 113 252 252 252 139 0 252-113 252-252 0-139-113-252-252-252zm171.3 341.8c-3.7-2.1-8.5-0.9-10.7 2.9-2.2 3.8-0.9 8.6 2.9 10.8l13 7.5c-16.7 26.4-39.1 48.8-65.5 65.5l-7.5-13c-2.2-3.8-7-5.1-10.8-2.9-3.8 2.1-5 7-2.9 10.7l7.6 13.1c-26.9 14.3-58 22.8-89.5 24v-43c0-4.3-3.5-7.8-7.9-7.8-4.3 0-7.9 3.5-7.9 7.8v43c-31.5-1.2-62.6-9.7-89.5-24l7.6-13.1c2.1-3.7 0.9-8.6-2.9-10.7-3.8-2.2-8.6-0.9-10.8 2.9l-7.5 13c-26.4-16.7-48.8-39.1-65.5-65.5l13-7.5c3.8-2.2 5.1-7 2.9-10.8-2.1-3.8-7-5-10.7-2.9l-13.1 7.6c-14.3-26.9-22.8-58-24-89.5h43c4.3 0 7.8-3.6 7.8-7.9 0-4.3-3.5-7.9-7.8-7.9h-43c1.2-31.5 9.7-62.6 24-89.5l13.1 7.6c1.2 0.7 2.6 1 3.9 1 2.7 0 5.4-1.4 6.8-3.9 2.2-3.8 0.9-8.6-2.9-10.8l-13-7.5c16.7-26.4 39.1-48.8 65.5-65.5l7.5 13c1.5 2.6 4.1 4 6.9 4 1.3 0 2.6-0.4 3.9-1.1 3.7-2.2 5-7 2.9-10.7l-7.6-13.1c26.9-14.3 58-22.8 89.5-24v42.9c0 4.4 3.5 7.9 7.9 7.9 4.3 0 7.9-3.5 7.9-7.9v-42.9c31.5 1.2 62.6 9.7 89.5 24l-7.6 13.1c-2.2 3.7-0.9 8.5 2.9 10.7 1.3 0.7 2.6 1.1 3.9 1.1 2.8 0 5.4-1.4 6.9-4l7.5-13c26.4 16.7 48.8 39.1 65.5 65.5l-13 7.5c-3.8 2.2-5.1 7-2.9 10.8 1.4 2.5 4.1 3.9 6.8 3.9 1.3 0 2.7-0.3 3.9-1l13.1-7.6c14.3 26.9 22.8 58 24 89.5h-43c-4.3 0-7.8 3.5-7.8 7.9 0 4.3 3.5 7.9 7.9 7.9h42.9c-1.2 31.5-9.7 62.6-24 89.5z"/>
		</g>
	</g>
	<g>
		<g>
			<path class="s0" d="m389.7 240.2h-117.4c-2.1-4-4.5-6.4-8.5-8.5v-117.4c0-6.5-5.3-11.8-11.8-11.8-6.5 0-11.8 5.3-11.8 11.8v117.4c-7.9 4.1-11.7 11.7-11.7 20.3 0 12.9 10.6 23.5 23.5 23.5 8.6 0 16.2-3.8 20.3-11.7h117.4c6.5 0 11.8-5.3 11.8-11.8 0-6.5-5.3-11.8-11.8-11.8z"/>
		</g>
	</g>
</svg>